<svg width="48" height="48" viewBox="0 0 48 48" fill="none" xmlns="http://www.w3.org/2000/svg">
<rect width="48" height="48" rx="6" stroke="#636AE8"/>
<path d="M21.5697 43.7518L7.57148 35.675C6.18752 34.881 5.34052 33.4063 5.34052 31.8106V15.6494C5.34052 14.0537 6.18752 12.579 7.57148 11.7849L21.5697 3.70053C22.9537 2.90646 24.6477 2.90646 26.0317 3.70053L40.03 11.7849C41.4139 12.579 42.2609 14.0537 42.2609 15.6494V31.8106C42.2609 33.4063 41.4139 34.881 40.03 35.675L26.0317 43.7594C24.6477 44.5535 22.9537 44.5535 21.5697 43.7594V43.7518ZM12.5401 32.8013L21.5697 38.0119C22.9537 38.806 24.6477 38.806 26.0317 38.0119L35.0614 32.8013C36.4453 32.0072 37.2923 30.5325 37.2923 28.9368V18.5156C37.2923 16.9199 36.4453 15.4452 35.0614 14.6511L26.0317 9.44054C24.6477 8.64645 22.9537 8.64645 21.5697 9.44054L12.5401 14.6511C11.1561 15.4452 10.3091 16.9199 10.3091 18.5156V28.9368C10.3091 30.5325 11.1561 32.0072 12.5401 32.8013Z" fill="#636AE8"/>
<path d="M42.2225 15.7054C42.2225 14.1097 41.3754 12.635 39.9915 11.8409L25.9932 3.75656C24.6092 2.96249 22.9152 2.96249 21.5312 3.75656L7.53297 11.8409C6.149 12.635 5.302 14.1097 5.302 15.7054V16.6583C6.70863 18.4128 8.35725 20.122 10.2706 21.7101V18.5716C10.2706 16.9759 11.1176 15.5012 12.5016 14.7072L21.5312 9.49657C22.9152 8.70248 24.6092 8.70248 25.9932 9.49657L35.0228 14.7072C36.4068 15.5012 37.2538 16.9759 37.2538 18.5716V28.9929C37.2538 29.4844 37.1706 29.9609 37.0194 30.4146C38.6831 30.4146 40.415 30.3616 42.2225 30.2255V15.7054Z" fill="#878CED"/>
<path d="M30.4926 18.6546L24.919 15.4405C24.3669 15.1229 23.6938 15.1229 23.1418 15.4405L17.5682 18.6546C17.0161 18.9722 16.6834 19.5621 16.6834 20.1898V26.6256C16.6834 27.2608 17.0237 27.8431 17.5682 28.1607L23.1418 31.3748C23.6938 31.6925 24.3669 31.6925 24.919 31.3748L30.4926 28.1607C31.0447 27.8431 31.3774 27.2532 31.3774 26.6256V20.1898C31.3774 19.5545 31.0371 18.9722 30.4926 18.6546Z" fill="#E8618C"/>
</svg>
